<?xml version="1.0" encoding="UTF-8" standalone="no"?><svg xmlns="http://www.w3.org/2000/svg" xmlns:xlink="http://www.w3.org/1999/xlink" contentScriptType="application/ecmascript" contentStyleType="text/css" height="394px" preserveAspectRatio="none" style="width:346px;height:394px;" version="1.1" viewBox="0 0 346 394" width="346px" zoomAndPan="magnify"><defs><filter height="300%" id="f1uitv2xuywfn3" width="300%" x="-1" y="-1"><feGaussianBlur result="blurOut" stdDeviation="2.0"/><feColorMatrix in="blurOut" result="blurOut2" type="matrix" values="0 0 0 0 0 0 0 0 0 0 0 0 0 0 0 0 0 0 .4 0"/><feOffset dx="4.0" dy="4.0" in="blurOut2" result="blurOut3"/><feBlend in="SourceGraphic" in2="blurOut3" mode="normal"/></filter></defs><g><!--class Clock--><rect fill="#FEFECE" filter="url(#f1uitv2xuywfn3)" height="142.0049" id="Clock" style="stroke: #A80036; stroke-width: 1.5;" width="86" x="6" y="8"/><ellipse cx="31.35" cy="24" fill="#ADD1B2" rx="11" ry="11" style="stroke: #A80036; stroke-width: 1.0;"/><path d="M35.475,27.9531 Q35.1156,28.5781 34.2719,29.2188 Q32.8656,30.2344 30.1313,30.2344 Q27.9438,30.2344 26.475,28.7656 Q24.7719,27.0625 24.7719,23.875 Q24.7719,20.9375 26.4594,19.1406 Q28.0063,17.5156 30.225,17.5156 Q32.1,17.5156 33.0844,17.8125 Q34.0688,18.1094 34.0688,18.1094 Q34.0688,18.1094 34.0688,17.5469 L35.0844,17.4531 L35.2406,21.5156 L33.9125,21.6406 Q33.1,18.0469 30.3656,18.0469 Q30.3656,18.0469 29.7719,18.3281 Q28.8656,18.6719 28.35,19.2188 Q26.975,20.7656 26.9594,23.9063 Q26.9438,26.6875 28.475,28.25 Q29.7719,29.5781 30.6,29.5781 Q32.6313,29.5781 34.8188,27.0156 L35.475,27.9531 Z "/><text fill="#000000" font-family="sans-serif" font-size="12" lengthAdjust="spacingAndGlyphs" textLength="31" x="47.65" y="29.9092">Clock</text><line style="stroke: #A80036; stroke-width: 1.5;" x1="7" x2="91" y1="40" y2="40"/><rect fill="none" height="6" style="stroke: #C82930; stroke-width: 1.0;" width="6" x="14" y="50.3337"/><text fill="#000000" font-family="sans-serif" font-size="11" lengthAdjust="spacingAndGlyphs" textLength="42" x="26" y="57.2505">calendar</text><line style="stroke: #A80036; stroke-width: 1.5;" x1="7" x2="91" y1="63.6675" y2="63.6675"/><ellipse cx="17" cy="77.0012" fill="#84BE84" rx="3" ry="3" style="stroke: #038048; stroke-width: 1.0;"/><text fill="#000000" font-family="sans-serif" font-size="11" lengthAdjust="spacingAndGlyphs" textLength="39" x="26" y="80.918">onTick()</text><rect fill="#F24D5C" height="6" style="stroke: #C82930; stroke-width: 1.0;" width="6" x="14" y="89.6687"/><text fill="#000000" font-family="sans-serif" font-size="11" lengthAdjust="spacingAndGlyphs" textLength="45" x="26" y="96.5854">setTime()</text><rect fill="#F24D5C" height="6" style="stroke: #C82930; stroke-width: 1.0;" width="6" x="14" y="105.3362"/><text fill="#000000" font-family="sans-serif" font-size="11" lengthAdjust="spacingAndGlyphs" textLength="46" x="26" y="112.2529">getHour()</text><rect fill="#F24D5C" height="6" style="stroke: #C82930; stroke-width: 1.0;" width="6" x="14" y="121.0037"/><text fill="#000000" font-family="sans-serif" font-size="11" lengthAdjust="spacingAndGlyphs" textLength="54" x="26" y="127.9204">getMinute()</text><rect fill="#F24D5C" height="6" style="stroke: #C82930; stroke-width: 1.0;" width="6" x="14" y="136.6711"/><text fill="#000000" font-family="sans-serif" font-size="11" lengthAdjust="spacingAndGlyphs" textLength="60" x="26" y="143.5879">getSecond()</text><!--class IClockSubscriber--><rect fill="#FEFECE" filter="url(#f1uitv2xuywfn3)" height="79.335" id="IClockSubscriber" style="stroke: #A80036; stroke-width: 1.5;" width="129" x="127.5" y="39.5"/><ellipse cx="142.5" cy="55.5" fill="#B4A7E5" rx="11" ry="11" style="stroke: #A80036; stroke-width: 1.0;"/><path d="M145.5,61.5156 L139.75,61.5156 L139.75,61.1875 Q140.8438,61.125 141.2344,60.7656 Q141.625,60.4063 141.625,59.4063 L141.625,51.4375 Q141.625,50.4063 141.2031,50.0313 Q140.8438,49.7031 139.75,49.6406 L139.75,49.3125 L145.5,49.3125 L145.5,49.6406 Q144.4844,49.6875 144.1094,49.9688 Q143.6094,50.375 143.6094,51.4375 L143.6094,59.4063 Q143.6094,60.4531 144.1094,60.8281 Q144.4844,61.1406 145.5,61.1875 L145.5,61.5156 Z "/><text fill="#000000" font-family="sans-serif" font-size="12" font-style="italic" lengthAdjust="spacingAndGlyphs" textLength="97" x="156.5" y="61.4092">IClockSubscriber</text><line style="stroke: #A80036; stroke-width: 1.5;" x1="128.5" x2="255.5" y1="71.5" y2="71.5"/><line style="stroke: #A80036; stroke-width: 1.5;" x1="128.5" x2="255.5" y1="79.5" y2="79.5"/><ellipse cx="138.5" cy="92.8337" fill="#84BE84" rx="3" ry="3" style="stroke: #038048; stroke-width: 1.0;"/><text fill="#000000" font-family="sans-serif" font-size="11" lengthAdjust="spacingAndGlyphs" textLength="41" x="147.5" y="96.7505">update()</text><ellipse cx="138.5" cy="108.5012" fill="#84BE84" rx="3" ry="3" style="stroke: #038048; stroke-width: 1.0;"/><text fill="#000000" font-family="sans-serif" font-size="11" lengthAdjust="spacingAndGlyphs" textLength="69" x="147.5" y="112.418">onTheMinute()</text><!--class DigitalClock--><rect fill="#FEFECE" filter="url(#f1uitv2xuywfn3)" height="173.3398" id="DigitalClock" style="stroke: #A80036; stroke-width: 1.5;" width="109" x="60.5" y="210"/><ellipse cx="80.45" cy="226" fill="#ADD1B2" rx="11" ry="11" style="stroke: #A80036; stroke-width: 1.0;"/><path d="M84.575,229.9531 Q84.2156,230.5781 83.3719,231.2188 Q81.9656,232.2344 79.2313,232.2344 Q77.0438,232.2344 75.575,230.7656 Q73.8719,229.0625 73.8719,225.875 Q73.8719,222.9375 75.5594,221.1406 Q77.1063,219.5156 79.325,219.5156 Q81.2,219.5156 82.1844,219.8125 Q83.1688,220.1094 83.1688,220.1094 Q83.1688,220.1094 83.1688,219.5469 L84.1844,219.4531 L84.3406,223.5156 L83.0125,223.6406 Q82.2,220.0469 79.4656,220.0469 Q79.4656,220.0469 78.8719,220.3281 Q77.9656,220.6719 77.45,221.2188 Q76.075,222.7656 76.0594,225.9063 Q76.0438,228.6875 77.575,230.25 Q78.8719,231.5781 79.7,231.5781 Q81.7313,231.5781 83.9188,229.0156 L84.575,229.9531 Z "/><text fill="#000000" font-family="sans-serif" font-size="12" lengthAdjust="spacingAndGlyphs" textLength="66" x="95.55" y="231.9092">DigitalClock</text><line style="stroke: #A80036; stroke-width: 1.5;" x1="61.5" x2="168.5" y1="242" y2="242"/><rect fill="none" height="6" style="stroke: #C82930; stroke-width: 1.0;" width="6" x="68.5" y="252.3337"/><text fill="#000000" font-family="sans-serif" font-size="11" lengthAdjust="spacingAndGlyphs" textLength="83" x="80.5" y="259.2505">digitalClockFrame</text><rect fill="none" height="6" style="stroke: #C82930; stroke-width: 1.0;" width="6" x="68.5" y="268.0012"/><text fill="#000000" font-family="sans-serif" font-size="11" lengthAdjust="spacingAndGlyphs" textLength="79" x="80.5" y="274.918">digitalClockPanel</text><rect fill="none" height="6" style="stroke: #C82930; stroke-width: 1.0;" width="6" x="68.5" y="283.6687"/><text fill="#000000" font-family="sans-serif" font-size="11" lengthAdjust="spacingAndGlyphs" textLength="45" x="80.5" y="290.5854">timeLabel</text><line style="stroke: #A80036; stroke-width: 1.5;" x1="61.5" x2="168.5" y1="297.0024" y2="297.0024"/><ellipse cx="71.5" cy="310.3362" fill="#84BE84" rx="3" ry="3" style="stroke: #038048; stroke-width: 1.0;"/><text fill="#000000" font-family="sans-serif" font-size="11" lengthAdjust="spacingAndGlyphs" textLength="62" x="80.5" y="314.2529">DigitalClock()</text><ellipse cx="71.5" cy="326.0037" fill="#84BE84" rx="3" ry="3" style="stroke: #038048; stroke-width: 1.0;"/><text fill="#000000" font-family="sans-serif" font-size="11" lengthAdjust="spacingAndGlyphs" textLength="41" x="80.5" y="329.9204">update()</text><ellipse cx="71.5" cy="341.6711" fill="#84BE84" rx="3" ry="3" style="stroke: #038048; stroke-width: 1.0;"/><text fill="#000000" font-family="sans-serif" font-size="11" lengthAdjust="spacingAndGlyphs" textLength="69" x="80.5" y="345.5879">onTheMinute()</text><rect fill="#F24D5C" height="6" style="stroke: #C82930; stroke-width: 1.0;" width="6" x="68.5" y="354.3386"/><text fill="#000000" font-family="sans-serif" font-size="11" lengthAdjust="spacingAndGlyphs" textLength="77" x="80.5" y="361.2554">setDigitalClock()</text><rect fill="#F24D5C" height="6" style="stroke: #C82930; stroke-width: 1.0;" width="6" x="68.5" y="370.0061"/><text fill="#000000" font-family="sans-serif" font-size="11" lengthAdjust="spacingAndGlyphs" textLength="42" x="80.5" y="376.9229">zeroFill()</text><!--class TopicService--><rect fill="#FEFECE" filter="url(#f1uitv2xuywfn3)" height="110.6699" id="TopicService" style="stroke: #A80036; stroke-width: 1.5;" width="130" x="205" y="241"/><ellipse cx="232.6" cy="257" fill="#ADD1B2" rx="11" ry="11" style="stroke: #A80036; stroke-width: 1.0;"/><path d="M236.725,260.9531 Q236.3656,261.5781 235.5219,262.2188 Q234.1156,263.2344 231.3813,263.2344 Q229.1938,263.2344 227.725,261.7656 Q226.0219,260.0625 226.0219,256.875 Q226.0219,253.9375 227.7094,252.1406 Q229.2563,250.5156 231.475,250.5156 Q233.35,250.5156 234.3344,250.8125 Q235.3188,251.1094 235.3188,251.1094 Q235.3188,251.1094 235.3188,250.5469 L236.3344,250.4531 L236.4906,254.5156 L235.1625,254.6406 Q234.35,251.0469 231.6156,251.0469 Q231.6156,251.0469 231.0219,251.3281 Q230.1156,251.6719 229.6,252.2188 Q228.225,253.7656 228.2094,256.9063 Q228.1938,259.6875 229.725,261.25 Q231.0219,262.5781 231.85,262.5781 Q233.8813,262.5781 236.0688,260.0156 L236.725,260.9531 Z "/><text fill="#000000" font-family="sans-serif" font-size="12" lengthAdjust="spacingAndGlyphs" textLength="70" x="249.4" y="262.9092">TopicService</text><line style="stroke: #A80036; stroke-width: 1.5;" x1="206" x2="334" y1="273" y2="273"/><rect fill="none" height="6" style="stroke: #C82930; stroke-width: 1.0;" width="6" x="213" y="283.3337"/><text fill="#000000" font-family="sans-serif" font-size="11" lengthAdjust="spacingAndGlyphs" textLength="31" x="225" y="290.2505">clocks</text><rect fill="none" height="6" style="stroke: #C82930; stroke-width: 1.0;" width="6" x="213" y="299.0012"/><text fill="#000000" font-family="sans-serif" font-size="11" lengthAdjust="spacingAndGlyphs" textLength="104" x="225" y="305.918">subscribersTopicMap</text><line style="stroke: #A80036; stroke-width: 1.5;" x1="206" x2="334" y1="312.335" y2="312.335"/><ellipse cx="216" cy="325.6687" fill="#84BE84" rx="3" ry="3" style="stroke: #038048; stroke-width: 1.0;"/><text fill="#000000" font-family="sans-serif" font-size="11" lengthAdjust="spacingAndGlyphs" textLength="38" x="225" y="329.5854">attach()</text><ellipse cx="216" cy="341.3362" fill="#84BE84" rx="3" ry="3" style="stroke: #038048; stroke-width: 1.0;"/><text fill="#000000" font-family="sans-serif" font-size="11" lengthAdjust="spacingAndGlyphs" textLength="42" x="225" y="345.2529">publish()</text><!--link IClockSubscriber to TopicService--><path d="M207.713,123.413 C219.945,157.207 236.998,204.32 250.168,240.709 " fill="none" id="IClockSubscriber-TopicService" style="stroke: #A80036; stroke-width: 1.0;"/><polygon fill="#A80036" points="205.945,118.527,205.2464,128.3511,207.6465,123.2286,212.7689,125.6287,205.945,118.527" style="stroke: #A80036; stroke-width: 1.0;"/><!--link IClockSubscriber to DigitalClock--><path d="M171.496,137.384 C163.545,159.637 154.272,185.589 145.566,209.956 " fill="none" id="IClockSubscriber-DigitalClock" style="stroke: #A80036; stroke-width: 1.0;"/><polygon fill="none" points="164.913,135.006,178.234,118.527,178.096,139.716,164.913,135.006" style="stroke: #A80036; stroke-width: 1.0;"/><!--
@startuml DigitalClock

class Clock {
    -calendar
    +onTick()
    -setTime()
    -getHour()
    -getMinute()
    -getSecond()
}

interface IClockSubscriber {
    +update()
    +onTheMinute()
}

class DigitalClock {
    -digitalClockFrame
    -digitalClockPanel
    -timeLabel
    +DigitalClock()
    +update()
    +onTheMinute()
    -setDigitalClock()
    -zeroFill()
}

class TopicService{
    -clocks
    -subscribersTopicMap
    +attach()
    +publish()
}

IClockSubscriber <- - TopicService
IClockSubscriber <|- - DigitalClock

@enduml

PlantUML version 1.2017.20(Tue Dec 12 00:57:05 CST 2017)
(GPL source distribution)
Java Runtime: Java(TM) SE Runtime Environment
JVM: Java HotSpot(TM) 64-Bit Server VM
Java Version: 9.0.1+11
Operating System: Windows 10
OS Version: 10.0
Default Encoding: MS950
Language: zh
Country: TW
--></g></svg>