<?xml version="1.0" encoding="UTF-8" standalone="no"?><svg xmlns="http://www.w3.org/2000/svg" xmlns:xlink="http://www.w3.org/1999/xlink" contentScriptType="application/ecmascript" contentStyleType="text/css" height="331px" preserveAspectRatio="none" style="width:247px;height:331px;" version="1.1" viewBox="0 0 247 331" width="247px" zoomAndPan="magnify"><defs><filter height="300%" id="f1dp5astsfb7ia" width="300%" x="-1" y="-1"><feGaussianBlur result="blurOut" stdDeviation="2.0"/><feColorMatrix in="blurOut" result="blurOut2" type="matrix" values="0 0 0 0 0 0 0 0 0 0 0 0 0 0 0 0 0 0 .4 0"/><feOffset dx="4.0" dy="4.0" in="blurOut2" result="blurOut3"/><feBlend in="SourceGraphic" in2="blurOut3" mode="normal"/></filter></defs><g><!--class Clock--><rect fill="#FEFECE" filter="url(#f1dp5astsfb7ia)" height="173.3398" id="Clock" style="stroke: #A80036; stroke-width: 1.5;" width="86" x="6" y="147"/><ellipse cx="31.35" cy="163" fill="#ADD1B2" rx="11" ry="11" style="stroke: #A80036; stroke-width: 1.0;"/><path d="M35.475,166.9531 Q35.1156,167.5781 34.2719,168.2188 Q32.8656,169.2344 30.1313,169.2344 Q27.9438,169.2344 26.475,167.7656 Q24.7719,166.0625 24.7719,162.875 Q24.7719,159.9375 26.4594,158.1406 Q28.0063,156.5156 30.225,156.5156 Q32.1,156.5156 33.0844,156.8125 Q34.0688,157.1094 34.0688,157.1094 Q34.0688,157.1094 34.0688,156.5469 L35.0844,156.4531 L35.2406,160.5156 L33.9125,160.6406 Q33.1,157.0469 30.3656,157.0469 Q30.3656,157.0469 29.7719,157.3281 Q28.8656,157.6719 28.35,158.2188 Q26.975,159.7656 26.9594,162.9063 Q26.9438,165.6875 28.475,167.25 Q29.7719,168.5781 30.6,168.5781 Q32.6313,168.5781 34.8188,166.0156 L35.475,166.9531 Z "/><text fill="#000000" font-family="sans-serif" font-size="12" lengthAdjust="spacingAndGlyphs" textLength="31" x="47.65" y="168.9092">Clock</text><line style="stroke: #A80036; stroke-width: 1.5;" x1="7" x2="91" y1="179" y2="179"/><rect fill="none" height="6" style="stroke: #C82930; stroke-width: 1.0;" width="6" x="14" y="189.3337"/><text fill="#000000" font-family="sans-serif" font-size="11" lengthAdjust="spacingAndGlyphs" textLength="31" x="26" y="196.2505">clocks</text><rect fill="none" height="6" style="stroke: #C82930; stroke-width: 1.0;" width="6" x="14" y="205.0012"/><text fill="#000000" font-family="sans-serif" font-size="11" lengthAdjust="spacingAndGlyphs" textLength="42" x="26" y="211.918">calendar</text><line style="stroke: #A80036; stroke-width: 1.5;" x1="7" x2="91" y1="218.335" y2="218.335"/><ellipse cx="17" cy="231.6687" fill="#84BE84" rx="3" ry="3" style="stroke: #038048; stroke-width: 1.0;"/><text fill="#000000" font-family="sans-serif" font-size="11" lengthAdjust="spacingAndGlyphs" textLength="39" x="26" y="235.5854">onTick()</text><ellipse cx="17" cy="247.3362" fill="#84BE84" rx="3" ry="3" style="stroke: #038048; stroke-width: 1.0;"/><text fill="#000000" font-family="sans-serif" font-size="11" lengthAdjust="spacingAndGlyphs" textLength="38" x="26" y="251.2529">attach()</text><rect fill="#F24D5C" height="6" style="stroke: #C82930; stroke-width: 1.0;" width="6" x="14" y="260.0037"/><text fill="#000000" font-family="sans-serif" font-size="11" lengthAdjust="spacingAndGlyphs" textLength="45" x="26" y="266.9204">setTime()</text><rect fill="#F24D5C" height="6" style="stroke: #C82930; stroke-width: 1.0;" width="6" x="14" y="275.6711"/><text fill="#000000" font-family="sans-serif" font-size="11" lengthAdjust="spacingAndGlyphs" textLength="46" x="26" y="282.5879">getHour()</text><rect fill="#F24D5C" height="6" style="stroke: #C82930; stroke-width: 1.0;" width="6" x="14" y="291.3386"/><text fill="#000000" font-family="sans-serif" font-size="11" lengthAdjust="spacingAndGlyphs" textLength="54" x="26" y="298.2554">getMinute()</text><rect fill="#F24D5C" height="6" style="stroke: #C82930; stroke-width: 1.0;" width="6" x="14" y="307.0061"/><text fill="#000000" font-family="sans-serif" font-size="11" lengthAdjust="spacingAndGlyphs" textLength="60" x="26" y="313.9229">getSecond()</text><!--class ClockObserver--><rect fill="#FEFECE" filter="url(#f1dp5astsfb7ia)" height="79.335" id="ClockObserver" style="stroke: #A80036; stroke-width: 1.5;" width="115" x="57.5" y="8"/><ellipse cx="72.5" cy="24" fill="#A9DCDF" rx="11" ry="11" style="stroke: #A80036; stroke-width: 1.0;"/><path d="M78.7344,28.7656 L73.8125,28.7656 L73.8125,28.4375 Q74.4531,28.3906 74.7188,28.2969 Q75.1406,28.1094 75.1406,27.5938 Q75.1406,27.1875 74.8438,26.4063 L74.25,24.7656 L70.6094,24.7656 L69.7813,26.875 Q69.6406,27.2031 69.6406,27.5938 Q69.6406,28.125 70.0469,28.2969 Q70.2188,28.3906 70.7344,28.4375 L70.7344,28.7656 L66.7031,28.7656 L66.7031,28.4375 Q66.9219,28.3906 67.125,28.3438 Q67.3281,28.2969 67.5156,28.0625 Q67.9844,27.4688 68.7188,25.4375 L72.0781,16.3281 L73.1406,16.3281 L77.0781,26.7969 Q77.4375,27.7969 77.875,28.1563 Q78.125,28.3438 78.7344,28.4375 L78.7344,28.7656 Z M74.0313,24.1406 L72.25,18.9063 L70.75,24.1406 L74.0313,24.1406 Z "/><text fill="#000000" font-family="sans-serif" font-size="12" font-style="italic" lengthAdjust="spacingAndGlyphs" textLength="83" x="86.5" y="29.9092">ClockObserver</text><line style="stroke: #A80036; stroke-width: 1.5;" x1="58.5" x2="171.5" y1="40" y2="40"/><polygon fill="none" points="68.5,48.3337,72.5,52.3337,68.5,56.3337,64.5,52.3337" style="stroke: #B38D22; stroke-width: 1.0;"/><text fill="#000000" font-family="sans-serif" font-size="11" lengthAdjust="spacingAndGlyphs" textLength="25" x="77.5" y="57.2505">clock</text><line style="stroke: #A80036; stroke-width: 1.5;" x1="58.5" x2="171.5" y1="63.6675" y2="63.6675"/><ellipse cx="68.5" cy="77.0012" fill="#84BE84" rx="3" ry="3" style="stroke: #038048; stroke-width: 1.0;"/><text fill="#000000" font-family="sans-serif" font-size="11" lengthAdjust="spacingAndGlyphs" textLength="41" x="77.5" y="80.918">update()</text><!--class DigitalClock--><rect fill="#FEFECE" filter="url(#f1dp5astsfb7ia)" height="157.6724" id="DigitalClock" style="stroke: #A80036; stroke-width: 1.5;" width="109" x="127.5" y="154.5"/><ellipse cx="147.45" cy="170.5" fill="#ADD1B2" rx="11" ry="11" style="stroke: #A80036; stroke-width: 1.0;"/><path d="M151.575,174.4531 Q151.2156,175.0781 150.3719,175.7188 Q148.9656,176.7344 146.2313,176.7344 Q144.0438,176.7344 142.575,175.2656 Q140.8719,173.5625 140.8719,170.375 Q140.8719,167.4375 142.5594,165.6406 Q144.1063,164.0156 146.325,164.0156 Q148.2,164.0156 149.1844,164.3125 Q150.1688,164.6094 150.1688,164.6094 Q150.1688,164.6094 150.1688,164.0469 L151.1844,163.9531 L151.3406,168.0156 L150.0125,168.1406 Q149.2,164.5469 146.4656,164.5469 Q146.4656,164.5469 145.8719,164.8281 Q144.9656,165.1719 144.45,165.7188 Q143.075,167.2656 143.0594,170.4063 Q143.0438,173.1875 144.575,174.75 Q145.8719,176.0781 146.7,176.0781 Q148.7313,176.0781 150.9188,173.5156 L151.575,174.4531 Z "/><text fill="#000000" font-family="sans-serif" font-size="12" lengthAdjust="spacingAndGlyphs" textLength="66" x="162.55" y="176.4092">DigitalClock</text><line style="stroke: #A80036; stroke-width: 1.5;" x1="128.5" x2="235.5" y1="186.5" y2="186.5"/><rect fill="none" height="6" style="stroke: #C82930; stroke-width: 1.0;" width="6" x="135.5" y="196.8337"/><text fill="#000000" font-family="sans-serif" font-size="11" lengthAdjust="spacingAndGlyphs" textLength="83" x="147.5" y="203.7505">digitalClockFrame</text><rect fill="none" height="6" style="stroke: #C82930; stroke-width: 1.0;" width="6" x="135.5" y="212.5012"/><text fill="#000000" font-family="sans-serif" font-size="11" lengthAdjust="spacingAndGlyphs" textLength="79" x="147.5" y="219.418">digitalClockPanel</text><rect fill="none" height="6" style="stroke: #C82930; stroke-width: 1.0;" width="6" x="135.5" y="228.1687"/><text fill="#000000" font-family="sans-serif" font-size="11" lengthAdjust="spacingAndGlyphs" textLength="45" x="147.5" y="235.0854">timeLabel</text><line style="stroke: #A80036; stroke-width: 1.5;" x1="128.5" x2="235.5" y1="241.5024" y2="241.5024"/><ellipse cx="138.5" cy="254.8362" fill="#84BE84" rx="3" ry="3" style="stroke: #038048; stroke-width: 1.0;"/><text fill="#000000" font-family="sans-serif" font-size="11" lengthAdjust="spacingAndGlyphs" textLength="62" x="147.5" y="258.7529">DigitalClock()</text><ellipse cx="138.5" cy="270.5037" fill="#84BE84" rx="3" ry="3" style="stroke: #038048; stroke-width: 1.0;"/><text fill="#000000" font-family="sans-serif" font-size="11" lengthAdjust="spacingAndGlyphs" textLength="41" x="147.5" y="274.4204">update()</text><rect fill="#F24D5C" height="6" style="stroke: #C82930; stroke-width: 1.0;" width="6" x="135.5" y="283.1711"/><text fill="#000000" font-family="sans-serif" font-size="11" lengthAdjust="spacingAndGlyphs" textLength="77" x="147.5" y="290.0879">setDigitalClock()</text><rect fill="#F24D5C" height="6" style="stroke: #C82930; stroke-width: 1.0;" width="6" x="135.5" y="298.8386"/><text fill="#000000" font-family="sans-serif" font-size="11" lengthAdjust="spacingAndGlyphs" textLength="42" x="147.5" y="305.7554">zeroFill()</text><!--link ClockObserver to Clock--><path d="M99.3635,92.093 C93.4492,108.581 86.4945,127.97 79.6731,146.987 " fill="none" id="ClockObserver-Clock" style="stroke: #A80036; stroke-width: 1.0;"/><polygon fill="#A80036" points="101.1642,87.072,94.3599,94.1925,99.4757,91.7783,101.8899,96.8941,101.1642,87.072" style="stroke: #A80036; stroke-width: 1.0;"/><!--link ClockObserver to DigitalClock--><path d="M135.968,106.084 C141.517,121.322 147.601,138.032 153.477,154.168 " fill="none" id="ClockObserver-DigitalClock" style="stroke: #A80036; stroke-width: 1.0;"/><polygon fill="none" points="129.311,108.26,129.045,87.072,142.466,103.47,129.311,108.26" style="stroke: #A80036; stroke-width: 1.0;"/><!--
@startuml DigitalClock

class Clock {
    -clocks
    -calendar
    +onTick()
    +attach()
    -setTime()
    -getHour()
    -getMinute()
    -getSecond()
}

abstract class ClockObserver {
    #clock
    +update()
}

class DigitalClock {
    -digitalClockFrame
    -digitalClockPanel
    -timeLabel
    +DigitalClock()
    +update()
    -setDigitalClock()
    -zeroFill()
}

ClockObserver <- - Clock
ClockObserver <|- - DigitalClock

@enduml

PlantUML version 1.2017.20(Tue Dec 12 00:57:05 CST 2017)
(GPL source distribution)
Java Runtime: Java(TM) SE Runtime Environment
JVM: Java HotSpot(TM) 64-Bit Server VM
Java Version: 9.0.1+11
Operating System: Windows 10
OS Version: 10.0
Default Encoding: MS950
Language: zh
Country: TW
--></g></svg>